# xmcd
#
# Track frame offsets: 
#        150
#        17212
#        27637
#        40499
#        54224
#        66636
#        83511
#        94236
#        107379
#        118441
#        133741
#        146772
#        159578
#        172553
#        184271
#        197527
#        207239
#        219707
#
# Disc length: 3101 seconds
#
# Revision: 1
# Processed by: cddbd v1.5.2PL0 Copyright (c) Steve Scherf et al.
# Submitted via: ExactAudioCopyFreeDBPlugin 1.0
#
DISCID=080c1b12
DTITLE=Howlin´ Wolf - The Back Door Man
DYEAR=2014
DGENRE=Blues
TTITLE0=Little Red Rooster
TTITLE1=Somebody Im My Home
TTITLE2=Back Door Man
TTITLE3=Smokestack Lightnin´
TTITLE4=Spoonful
TTITLE5=Sittin´ On The Top Of The World
TTITLE6=Who´s  Been Talkin´
TTITLE7=Moanin´ At Midnight
TTITLE8=You´ll Be Mine
TTITLE9=Going Down Slow
TTITLE10=No Place To Go
TTITLE11=Evil
TTITLE12=I Ain´t Superstitious
TTITLE13=Louise
TTITLE14=Tell Me
TTITLE15=Down In The Bottom
TTITLE16=Little Baby
TTITLE17=Forty-Four
EXTD=
EXTT0=
EXTT1=
EXTT2=
EXTT3=
EXTT4=
EXTT5=
EXTT6=
EXTT7=
EXTT8=
EXTT9=
EXTT10=
EXTT11=
EXTT12=
EXTT13=
EXTT14=
EXTT15=
EXTT16=
EXTT17=
PLAYORDER=
